<?xml version="1.0" standalone="yes"?>
<svg xmlns="http://www.w3.org/2000/svg" width="490" height="479">
<path style="fill:#040403; stroke:none;" d="M132 101C152.127 99.0953 172.312 93.3469 192 88.9084C194.057 88.4446 211.441 83.9713 209.357 89.6683C207.254 95.4171 187.296 96.7374 182 97.7999C159.612 102.291 137.343 107.304 115 111.989C106.899 113.688 95.0623 115.618 92.2811 125.001C86.0619 145.982 117.116 133.309 121.403 140.292C131.684 157.035 132.077 187.792 136.459 207C140.055 222.765 152.412 253.407 148.78 268.992C146.906 277.032 125.314 284.028 130.649 293C147.795 321.83 171.224 266.749 194.903 281.298C207.21 288.86 176.158 314.613 185.9 324.895C196.852 336.454 247.084 332.234 258.119 322.414C263.155 317.933 249.895 305.254 257.327 302.501C272.993 296.7 298.299 310.634 310.245 294.949C317.09 285.961 340.002 248.865 334.699 238.051C328.858 226.139 318.359 238.235 312.123 233.777C308.945 231.505 308.347 221.65 307.628 218C304.995 204.634 294.67 181.225 298.383 168C301.182 158.034 312.277 148.223 318.364 140C333.438 119.636 348.331 99.0723 363.794 79C369.47 71.6323 387.964 54.7016 382.263 45C376 34.3419 352.197 8.1889 338.078 9.82358C332.481 10.4716 327.43 18.9937 324.203 23C315.561 33.7285 306.388 45.3872 294 51.9861C261.786 69.1459 211.765 71.4255 176 78.8048C159.678 82.1725 137.919 82.5323 132 101M199 256C176.387 252.01 176.618 256.974 156 266C149.331 234.683 142.358 203.416 136.184 172C134.409 162.97 126.43 145.415 129.22 136.564C130.665 131.978 142.052 131.536 146 130.66C162.559 126.988 177.507 125.676 191 114.748C193.232 112.94 201.866 105.151 204.456 110.387C206.607 114.735 194.682 122.183 192 124.416C182.667 132.187 150.447 150.667 150.976 164C151.835 185.669 177.499 165.449 180.621 171.335C192.493 193.727 194.092 231.027 199 256M292 176C294.283 199.477 306.416 223.517 306.557 247C306.872 299.322 234.985 281.995 209.277 262.565C200.093 255.625 199.002 226.971 196.8 216C194.073 202.414 182.604 176.429 186.182 163.139C187.861 156.904 198.259 151.36 203 147.416C221.278 132.213 254.111 118.602 278.992 121.206C300.625 123.47 267.246 157.334 264.365 165C260.882 174.269 270.128 181.943 279 180.559C283.552 179.848 287.574 177.199 292 176M243 222.596C207.716 229.985 221.318 273.57 255 266.632C288.77 259.676 275.643 215.76 243 222.596M191 418C180.96 401.405 167.15 386.291 155.217 371C151.916 366.771 142.91 358.746 143.376 353C143.786 347.935 151.253 342.589 154.438 339C164.826 327.294 176.691 316.618 186 304C178.186 304 166.409 301.792 159.136 304.822C142.499 311.753 126.783 340.166 114 353L114 329C114 323.174 116.352 310.839 113.178 305.822C111.073 302.493 92.9269 302.493 90.8216 305.822C87.5355 311.017 90 323.957 90 330L90 392C90 396.836 87.3496 414.35 91.8216 417.178C127.22 439.569 102.979 370.52 125.481 370.52C129.39 370.52 133.344 378.292 135.375 381C143.479 391.805 150.896 403.807 159.916 413.852C166.482 421.165 181.979 418 191 418M202 361C211.601 357.849 224.709 351.5 234.992 352.972C239.462 353.612 246.779 360.574 241.455 364.781C229.009 374.616 202.862 365.845 194.645 384.019C188.616 397.353 210.904 423.717 224 424.1C231.447 424.318 237.501 417.054 243 413C243.35 423.03 252.973 422.765 261 425C261 393.093 269.28 362.786 239.992 340.768C233.702 336.039 198.955 337.298 196.139 346.585C194.874 350.756 200.334 357.324 202 361M300 350C299.559 343.995 284.878 335.81 280.822 341.862C273.509 352.772 280 388.668 280 402C280 406.614 278.348 415.364 281.26 419.259C284.459 423.537 295.071 423.95 300 425C300 405.351 294.869 381.721 310.003 367.041C314.275 362.897 327.067 350.497 332.876 358.374C343.407 372.652 324.396 408.091 336.822 419.884C340.527 423.4 349.144 423.961 354 425C354 407.791 358.116 384.481 353.092 368C344.229 338.928 321.056 334.477 300 350M390 354C389.985 346.871 375.597 332.46 371.501 342.52C365.417 357.464 367.561 401.934 371.284 417.735C372.307 422.074 385.472 425.851 388.74 422.721C397.151 414.668 386.739 384.278 391.148 373C401.776 345.811 423.356 376.225 433.666 355.019C438.353 345.378 415.718 336.423 408.001 337.432C399.699 338.518 394.832 348.189 390 354M243 378C246.818 393.087 228.569 413.104 212.366 404.937C204.341 400.891 213.924 391.455 218.008 388.851C220.868 387.027 223.899 385.524 227 384.16C232.233 381.859 237.67 380.061 243 378z"/>
</svg>
