<svg id="svg" version="1.1" width="486" height="445" xmlns="http://www.w3.org/2000/svg" xmlns:xlink="http://www.w3.org/1999/xlink" ><g id="svgg"><path id="path0" d="M300.000 8.436 C 295.956 12.171,285.857 21.573,277.558 29.331 C 267.595 38.645,260.737 44.376,257.367 46.203 L 252.263 48.971 205.761 49.383 C 154.870 49.833,157.157 49.589,153.498 54.959 L 151.409 58.025 155.334 58.570 C 157.493 58.870,168.010 59.147,178.706 59.187 C 194.664 59.246,198.331 59.474,199.147 60.458 C 201.413 63.188,199.346 63.374,166.824 63.379 C 148.118 63.382,133.338 63.725,131.640 64.197 C 120.186 67.379,122.699 80.648,134.887 81.336 L 140.754 81.668 140.541 130.752 L 140.329 179.835 133.745 183.725 C 125.390 188.662,123.979 190.322,124.547 194.553 C 125.738 203.431,130.819 203.401,146.329 194.426 C 160.103 186.455,159.118 186.612,164.023 191.592 C 168.704 196.345,168.696 195.304,164.105 202.151 C 159.414 209.147,154.796 218.275,151.973 226.132 L 149.830 232.099 174.598 232.099 L 199.367 232.099 198.817 227.366 C 198.514 224.763,198.060 221.430,197.807 219.959 C 197.242 216.666,196.522 216.655,210.816 220.165 C 222.985 223.153,227.048 223.604,229.581 222.248 C 231.064 221.455,249.514 194.691,252.222 189.406 C 255.968 182.095,249.722 176.099,241.358 178.978 L 239.506 179.616 239.506 154.797 L 239.506 129.977 250.000 119.101 C 255.772 113.119,271.142 97.176,284.156 83.672 L 307.819 59.119 307.819 30.382 C 307.819 14.577,307.714 1.646,307.587 1.646 C 307.459 1.646,304.045 4.702,300.000 8.436 M193.414 76.495 C 193.412 77.131,187.932 80.724,171.597 90.799 C 154.329 101.449,154.307 101.472,154.641 108.500 C 154.901 113.956,162.349 116.849,167.715 113.577 C 169.198 112.674,170.586 111.934,170.802 111.934 C 171.017 111.934,171.193 126.379,171.193 144.033 C 171.193 161.687,170.892 176.132,170.524 176.132 C 170.156 176.132,168.799 175.029,167.508 173.682 C 162.991 168.967,160.616 168.887,152.670 173.183 C 148.834 175.257,145.506 176.955,145.275 176.955 C 145.045 176.955,144.856 155.473,144.856 129.218 L 144.856 81.481 161.111 81.478 C 176.376 81.476,177.542 81.366,180.247 79.683 C 190.461 73.326,193.427 72.608,193.414 76.495 M236.255 95.083 C 241.306 97.695,238.730 103.755,228.393 113.580 C 219.081 122.432,217.181 128.624,222.309 133.415 C 225.233 136.146,226.658 136.425,232.305 135.372 L 235.391 134.796 235.391 160.985 L 235.391 187.175 229.012 196.864 C 221.542 208.211,223.399 207.680,207.049 203.145 L 194.650 199.706 184.979 190.605 L 175.309 181.503 175.309 145.209 L 175.309 108.915 187.860 101.386 L 200.412 93.858 217.119 93.842 C 230.508 93.830,234.309 94.077,236.255 95.083 M194.616 161.218 C 187.698 164.360,184.259 171.427,185.857 179.215 C 189.827 198.562,217.996 195.734,218.089 175.980 C 218.145 163.935,205.769 156.152,194.616 161.218 M69.136 259.204 C 69.136 302.337,69.227 305.265,70.576 305.660 C 72.398 306.194,86.431 309.465,86.896 309.465 C 87.087 309.465,87.243 304.895,87.243 299.310 L 87.243 289.156 95.132 277.911 C 99.471 271.727,103.352 266.667,103.757 266.667 C 104.161 266.667,109.582 275.216,115.803 285.665 C 122.024 296.114,127.684 304.969,128.382 305.343 C 130.323 306.381,143.210 309.304,143.210 308.706 C 143.210 308.416,136.173 296.535,127.572 282.305 C 118.971 268.074,111.934 255.954,111.934 255.371 C 111.934 254.789,117.677 246.344,124.697 236.605 C 139.916 215.490,139.285 217.428,131.687 215.145 C 121.719 212.150,123.982 210.283,104.711 237.403 L 87.491 261.636 86.955 251.677 C 86.661 246.199,86.420 236.483,86.420 230.087 L 86.420 218.457 78.353 215.813 C 73.916 214.359,70.027 213.169,69.711 213.169 C 69.395 213.169,69.136 233.885,69.136 259.204 M168.368 239.554 C 150.065 243.669,151.022 242.844,155.117 250.976 L 157.971 256.643 165.883 254.268 C 185.332 248.429,190.005 248.591,191.776 255.168 C 193.066 259.959,192.564 260.617,187.102 261.294 C 179.578 262.225,164.532 266.260,160.044 268.549 C 148.030 274.677,148.100 281.066,160.361 297.373 C 170.816 311.279,176.413 312.550,186.623 303.337 C 191.031 299.360,191.407 299.380,191.935 303.624 C 192.164 305.468,205.174 310.326,206.455 309.046 C 206.646 308.855,206.990 298.578,207.220 286.210 C 207.716 259.516,207.947 260.427,197.786 248.971 C 186.195 235.901,185.544 235.693,168.368 239.554 M253.765 238.229 C 249.424 239.577,245.533 241.975,242.439 245.210 C 239.391 248.395,238.849 248.376,238.530 245.069 C 238.264 242.323,231.791 239.790,224.486 239.573 L 222.222 239.506 222.222 272.699 L 222.222 305.893 228.601 307.277 C 232.109 308.038,235.813 308.885,236.831 309.159 L 238.683 309.657 238.683 290.343 L 238.683 271.029 241.012 267.819 C 249.041 256.754,263.283 248.886,266.451 253.767 C 266.796 254.298,267.263 266.191,267.490 280.195 L 267.901 305.658 273.663 307.112 C 276.831 307.911,280.257 308.775,281.276 309.031 L 283.128 309.496 283.128 286.695 C 283.128 259.497,283.459 260.643,272.173 248.837 C 261.314 237.478,259.518 236.443,253.765 238.229 M323.857 238.787 C 322.505 239.750,320.103 242.195,318.519 244.221 C 312.194 252.310,312.815 251.992,312.785 247.151 L 312.757 242.862 308.683 241.652 C 306.443 240.987,302.924 240.190,300.864 239.881 L 297.119 239.319 297.119 272.596 L 297.119 305.872 303.086 307.279 C 306.368 308.054,309.887 308.905,310.905 309.172 L 312.757 309.657 312.757 288.252 L 312.757 266.846 315.503 262.847 C 321.458 254.174,327.649 252.865,336.682 258.370 C 342.723 262.052,342.154 262.281,347.193 254.135 C 351.516 247.148,351.689 247.820,344.516 243.716 C 332.847 237.039,327.951 235.871,323.857 238.787 M191.770 277.773 L 191.770 283.940 188.354 286.414 C 177.471 294.298,165.469 296.325,164.189 290.496 C 163.009 285.124,169.517 279.607,183.539 274.094 C 192.085 270.735,191.770 270.594,191.770 277.773 M93.416 313.725 C 92.510 314.230,89.508 316.791,86.744 319.416 C 79.069 326.706,73.038 327.443,72.584 321.147 C 72.335 317.689,72.411 317.570,75.671 316.289 C 80.124 314.540,80.031 313.182,75.514 314.016 C 73.591 314.372,69.002 314.720,65.317 314.791 C 55.756 314.973,49.997 320.262,55.913 323.428 C 58.748 324.945,59.602 324.340,57.613 322.222 L 55.680 320.165 57.613 318.107 C 59.314 316.296,60.230 316.049,65.245 316.049 L 70.944 316.049 70.386 321.193 C 68.908 334.821,64.527 338.364,53.909 334.519 C 52.324 333.944,52.317 333.980,53.733 335.480 C 57.940 339.937,68.625 336.729,70.945 330.311 C 72.419 326.235,76.895 326.398,82.640 330.737 C 89.645 336.027,90.787 336.626,93.883 336.626 C 95.826 336.626,97.387 336.048,98.365 334.967 C 99.860 333.315,99.852 333.313,96.529 334.486 C 92.617 335.866,91.256 335.359,84.158 329.883 L 79.832 326.546 83.430 324.265 C 85.408 323.010,88.021 320.681,89.235 319.089 C 90.449 317.497,92.905 315.609,94.693 314.894 C 96.480 314.179,97.942 313.405,97.942 313.175 C 97.942 312.435,95.112 312.779,93.416 313.725 M294.858 314.609 C 288.873 322.151,292.811 339.271,299.855 336.328 C 302.146 335.371,302.776 335.394,304.439 336.498 C 306.186 337.658,306.581 337.656,308.643 336.472 L 310.919 335.166 311.265 342.407 C 311.710 351.714,313.360 354.130,316.872 350.617 C 318.982 348.508,318.959 345.653,316.799 341.419 C 314.993 337.880,314.990 337.888,318.650 335.786 C 319.577 335.253,320.953 335.393,322.931 336.219 C 326.241 337.602,328.709 337.014,331.202 334.246 C 333.281 331.938,332.463 331.255,329.961 333.209 C 326.061 336.254,323.946 336.367,325.455 333.449 C 328.588 327.390,324.818 326.758,319.478 332.446 C 313.139 339.198,311.326 336.365,316.039 327.071 C 319.316 320.609,319.383 313.491,316.167 313.645 C 315.313 313.686,315.194 313.863,315.844 314.125 C 317.599 314.834,317.041 321.828,314.869 326.337 L 312.887 330.453 312.822 327.067 C 312.786 325.205,313.129 321.719,313.584 319.321 C 314.039 316.922,314.254 314.803,314.062 314.611 C 313.124 313.672,311.989 318.117,311.476 324.739 C 310.657 335.336,304.955 341.073,304.366 331.893 L 304.115 327.984 302.149 331.415 C 297.631 339.301,292.889 335.366,296.960 327.110 C 301.107 318.700,299.447 308.827,294.858 314.609 M297.589 322.167 C 297.326 323.555,296.346 325.802,295.412 327.160 L 293.715 329.630 294.000 323.723 C 294.215 319.285,294.689 317.368,295.908 316.012 L 297.531 314.209 297.800 316.926 C 297.948 318.420,297.853 320.778,297.589 322.167 M200.173 318.961 C 199.563 319.653,197.465 320.217,195.235 320.288 L 191.358 320.412 195.062 320.906 L 198.765 321.399 199.020 325.882 C 199.453 333.518,197.060 337.028,193.562 333.888 C 192.321 332.774,191.936 332.844,189.769 334.581 L 187.356 336.514 192.238 336.320 C 194.923 336.213,197.865 335.716,198.777 335.216 C 200.043 334.521,200.810 334.580,202.021 335.466 C 203.937 336.867,206.734 336.969,208.018 335.686 C 208.722 334.982,209.673 335.086,211.811 336.100 C 214.930 337.580,216.718 337.260,219.547 334.713 C 222.561 332.000,221.661 331.490,218.063 333.872 L 214.726 336.080 213.010 334.364 C 211.863 333.217,211.488 332.147,211.879 331.138 C 212.419 329.747,212.543 329.775,213.477 331.507 C 214.566 333.528,215.638 333.155,215.638 330.756 C 215.638 327.236,212.751 327.504,209.561 331.320 C 205.099 336.658,199.927 335.752,202.829 330.141 C 204.628 326.661,204.470 325.350,202.469 327.160 C 200.849 328.627,200.823 328.598,200.823 325.279 C 200.823 321.604,202.306 319.773,203.032 322.551 C 203.501 324.343,205.920 325.046,205.556 323.284 C 205.425 322.650,207.297 321.976,210.700 321.432 L 216.049 320.576 211.186 320.325 C 208.511 320.187,205.558 319.539,204.624 318.885 C 202.514 317.407,201.529 317.424,200.173 318.961 M149.794 323.868 C 148.928 324.912,149.100 325.103,150.902 325.103 C 152.460 325.103,152.907 324.770,152.561 323.868 C 152.300 323.189,151.802 322.634,151.453 322.634 C 151.104 322.634,150.358 323.189,149.794 323.868 M302.606 323.182 C 301.487 324.301,302.117 325.103,304.115 325.103 C 306.414 325.103,306.875 323.902,304.871 323.133 C 303.259 322.515,303.274 322.514,302.606 323.182 M269.191 327.917 C 268.425 328.840,268.533 329.263,269.707 329.932 C 271.098 330.725,271.062 330.911,269.136 332.829 C 266.005 335.947,264.945 335.801,263.843 332.099 L 262.863 328.807 261.820 331.893 C 261.099 334.028,260.290 334.979,259.195 334.979 C 257.920 334.979,257.608 334.380,257.587 331.893 L 257.561 328.807 255.872 331.070 C 254.944 332.315,253.699 333.333,253.107 333.333 C 252.515 333.333,251.765 332.315,251.441 331.070 L 250.851 328.807 249.974 330.864 C 249.100 332.915,249.096 332.915,248.771 331.070 C 248.258 328.152,245.228 328.758,241.564 332.510 C 237.567 336.603,236.710 336.645,237.381 332.716 L 237.908 329.630 235.621 332.312 C 232.504 335.967,230.918 335.858,231.539 332.032 C 231.953 329.477,231.852 329.221,230.781 330.110 C 228.400 332.086,229.644 336.176,232.716 336.472 C 235.951 336.784,235.936 336.459,232.936 341.303 C 228.904 347.812,228.731 350.617,232.359 350.617 C 235.978 350.617,236.314 350.093,236.834 343.611 C 237.303 337.769,240.665 333.691,243.247 335.833 C 244.582 336.941,248.509 336.540,252.506 334.888 C 254.844 333.922,255.322 333.936,255.971 334.986 C 257.833 337.998,268.008 336.878,270.984 333.333 L 273.659 330.147 274.505 333.180 C 275.679 337.387,279.202 337.824,282.680 334.194 C 285.595 331.151,284.901 330.982,280.835 333.745 C 276.846 336.456,276.543 336.373,276.543 332.571 C 276.543 329.767,276.199 329.167,273.948 328.044 C 270.767 326.457,270.410 326.448,269.191 327.917 M131.578 331.070 C 127.880 334.881,125.246 336.028,124.962 333.951 C 124.885 333.385,124.792 331.996,124.756 330.864 C 124.613 326.322,117.265 328.948,116.733 333.730 L 116.461 336.185 122.634 336.267 C 128.686 336.348,128.859 336.293,131.481 333.446 L 134.156 330.543 134.156 334.170 L 134.156 337.798 138.272 333.745 L 142.387 329.692 142.387 333.063 C 142.387 336.940,144.342 338.128,147.307 336.052 C 148.848 334.972,149.272 334.987,151.102 336.186 C 153.715 337.898,155.636 337.277,158.772 333.705 C 161.911 330.130,162.459 330.137,161.783 333.745 C 161.368 335.955,161.519 336.626,162.429 336.626 C 163.082 336.626,164.754 335.329,166.145 333.745 C 169.279 330.175,169.547 330.172,169.547 333.696 C 169.547 337.780,170.690 337.909,173.659 334.160 C 176.754 330.253,177.778 330.023,177.778 333.233 C 177.778 336.666,179.538 337.850,182.451 336.379 C 183.729 335.733,185.237 335.371,185.802 335.572 C 186.451 335.804,186.831 335.171,186.831 333.860 C 186.831 331.032,190.112 328.610,191.455 330.446 C 192.238 331.517,192.518 331.534,193.328 330.558 C 194.069 329.665,193.987 329.298,192.958 328.903 C 190.452 327.941,189.342 328.407,185.051 332.218 C 180.394 336.354,180.267 336.323,179.074 330.735 C 178.537 328.218,176.388 328.308,174.000 330.946 C 172.214 332.920,171.193 332.940,171.193 331.001 C 171.193 327.872,168.342 328.361,165.288 332.014 C 163.847 333.737,163.841 333.733,163.813 331.119 C 163.772 327.148,162.790 327.254,158.228 331.721 C 153.260 336.585,151.440 336.522,151.440 331.484 L 151.440 328.165 149.278 331.367 C 145.881 336.396,144.044 336.851,144.020 332.667 C 143.994 328.002,139.462 327.627,137.728 332.147 C 136.904 334.293,135.906 333.387,135.636 330.247 L 135.370 327.160 131.578 331.070 M124.280 330.104 C 124.280 330.592,123.146 332.125,121.760 333.511 C 119.128 336.142,117.255 335.815,117.831 332.824 C 118.287 330.460,124.280 327.932,124.280 330.104 M325.103 331.276 C 325.103 332.524,323.602 333.753,322.915 333.066 C 322.678 332.829,322.729 331.860,323.029 330.914 C 323.608 329.092,325.103 329.353,325.103 331.276 M106.996 330.864 C 105.311 331.404,105.638 331.538,108.799 331.605 C 110.923 331.650,112.889 331.317,113.169 330.864 C 113.766 329.898,110.014 329.898,106.996 330.864 M247.638 332.817 C 249.251 334.534,249.310 334.831,248.125 335.286 C 245.012 336.480,243.064 334.920,244.147 332.099 C 244.799 330.399,245.503 330.544,247.638 332.817 M315.235 341.770 C 317.135 344.885,317.332 348.028,315.762 350.175 C 314.330 352.134,312.757 348.209,312.757 342.676 C 312.757 338.389,313.098 338.264,315.235 341.770 M235.024 347.851 C 234.709 349.107,233.937 349.794,232.841 349.794 C 230.856 349.794,231.261 346.088,233.647 342.420 L 234.979 340.372 235.246 343.139 C 235.392 344.661,235.293 346.781,235.024 347.851 " stroke="none" fill="#000000" fill-rule="evenodd"></path></g></svg>